<?xml version="1.0" encoding="UTF-8" standalone="no"?>
<svg width="14px" height="14px" viewBox="0 0 14 14" version="1.1" xmlns="http://www.w3.org/2000/svg" xmlns:xlink="http://www.w3.org/1999/xlink">
    <!-- Generator: Sketch 3.8.3 (29802) - http://www.bohemiancoding.com/sketch -->
    <title>Group 4</title>
    <desc>Created with Sketch.</desc>
    <defs></defs>
    <g id="Home-Page" stroke="none" stroke-width="1" fill="none" fill-rule="evenodd">
        <g id="corp-site-update-062816-v2" transform="translate(-1327.000000, -2571.000000)" fill="#FFFFFF">
            <g id="social" transform="translate(1237.000000, 2563.000000)">
                <g id="linkedin-logo-button" transform="translate(90.000000, 8.000000)">
                    <g id="Group">
                        <g id="Group-4">
                            <path d="M1.7857,0.5439 C0.8281,0.5439 0.2009,1.1725 0.2009,1.9999 C0.2009,2.8084 0.8092,3.4559 1.7486,3.4559 L1.7668,3.4559 C2.744,3.4559 3.3523,2.8084 3.3523,1.9999 C3.3334,1.1732 2.7447,0.5439 1.7857,0.5439 L1.7857,0.5439 Z" id="Shape"></path>
                            <path d="M10.045,4.4086 C8.5575,4.4086 7.8932,5.2262 7.5215,5.8002 L7.5215,4.6074 L4.7201,4.6074 C4.7565,5.397 4.7201,13.0361 4.7201,13.0361 L7.5215,13.0361 L7.5215,8.3272 C7.5215,8.0759 7.5376,7.8232 7.6132,7.6433 C7.8162,7.1393 8.2768,6.6178 9.051,6.6178 C10.0646,6.6178 10.4699,7.3906 10.4699,8.5246 L10.4699,13.034 L13.2713,13.034 L13.272,13.034 L13.272,8.2005 C13.2706,5.6133 11.8881,4.4086 10.045,4.4086 L10.045,4.4086 Z M7.5194,5.8296 L7.5019,5.8296 C7.5075,5.8198 7.5159,5.8107 7.5194,5.8009 L7.5194,5.8296 L7.5194,5.8296 Z" id="Shape"></path>
                            <rect id="Rectangle-path" x="0.3661" y="4.6074" width="2.8014" height="8.4287"></rect>
                        </g>
                    </g>
                </g>
            </g>
        </g>
    </g>
</svg>